<svg width="42" height="42" viewBox="0 0 42 42" fill="none" xmlns="http://www.w3.org/2000/svg">
<g clip-path="url(#clip0_0_1)">
<path d="M1.25 21C1.25 31.9076 10.0924 40.75 21 40.75C31.9076 40.75 40.75 31.9076 40.75 21C40.75 10.0924 31.9076 1.25 21 1.25C10.0924 1.25 1.25 10.0924 1.25 21Z" stroke="#828282" stroke-width="2.5"/>
<path d="M13.9363 22.0564L23.5184 31.6385C24.1042 32.2243 25.054 32.2243 25.6398 31.6385C26.2255 31.0528 26.2255 30.103 25.6398 29.5172L16.0576 19.9351C15.4718 19.3493 14.5221 19.3493 13.9363 19.9351C13.3505 20.5209 13.3505 21.4706 13.9363 22.0564Z" fill="#828282"/>
<path d="M16.0574 22.0627L25.6395 12.4806C26.2253 11.8948 26.2253 10.945 25.6395 10.3592C25.0538 9.77345 24.104 9.77345 23.5182 10.3592L13.9361 19.9414C13.3503 20.5272 13.3503 21.4769 13.9361 22.0627C14.5219 22.6485 15.4716 22.6485 16.0574 22.0627Z" fill="#828282"/>
</g>
<defs>
<clipPath id="clip0_0_1">
<rect width="42" height="42" fill="white"/>
</clipPath>
</defs>
</svg>
